<svg xmlns="http://www.w3.org/2000/svg" viewBox="554.0 8.0 244.0 396.0" width="244" height="396" role="img" aria-label="What each service does: access control, live bidding, AI routes and graded returns"><defs><linearGradient id="oband" x1="0" x2="1"><stop offset="0" stop-color="#4285F4"/><stop offset=".33" stop-color="#EA4335"/><stop offset=".66" stop-color="#FBBC04"/><stop offset="1" stop-color="#34A853"/></linearGradient><linearGradient id="ologo" x1="0" y1="0" x2="1" y2="1"><stop offset="0" stop-color="#4285F4"/><stop offset=".35" stop-color="#EA4335"/><stop offset=".65" stop-color="#FBBC04"/><stop offset="1" stop-color="#34A853"/></linearGradient><linearGradient id="obtn" x1="0" x2="1"><stop offset="0" stop-color="#4285F4"/><stop offset="1" stop-color="#34A853"/></linearGradient><clipPath id="owin"><rect x="40" y="26" width="720" height="388" rx="14"/></clipPath><filter id="osh" x="-10%" y="-10%" width="120%" height="140%"><feDropShadow dx="0" dy="6" stdDeviation="8" flood-color="#0B1F44" flood-opacity=".18"/></filter></defs><g filter="url(#osh)"><rect x="566.0" y="20.0" width="220.0" height="84.0" rx="14" fill="#fff"/></g><rect x="566.0" y="34.0" width="4.0" height="56.0" rx="2" fill="#4285F4"/><rect x="582.0" y="34.0" width="30.0" height="30.0" rx="8" fill="#E8F0FE"/><path d="M597,40 l8,3 v6 c0,6 -4,9 -8,11 c-4,-2 -8,-5 -8,-11 v-6z" fill="none" stroke="#4285F4" stroke-width="2" stroke-linejoin="round"/><path d="M593.5,50 l2.6,2.8 4.8,-5.4" fill="none" stroke="#4285F4" stroke-width="2" stroke-linecap="round"/><rect x="622.0" y="38.0" width="90.0" height="7.0" rx="3.5" fill="#B2DFDB"/><rect x="622.0" y="50.0" width="120.0" height="5.0" rx="2.5" fill="#E8EAED"/><rect x="582.0" y="76.0" width="150.0" height="5.0" rx="2.5" fill="#E8EAED"/><rect x="742.0" y="73.0" width="22.0" height="12.0" rx="6" fill="#34A853"/><circle cx="758.0" cy="79.0" r="4.5" fill="#fff"/><rect x="582.0" y="88.0" width="150.0" height="5.0" rx="2.5" fill="#E8EAED"/><rect x="742.0" y="85.0" width="22.0" height="12.0" rx="6" fill="#DADCE0"/><circle cx="748.0" cy="91.0" r="4.5" fill="#fff"/><g filter="url(#osh)"><rect x="566.0" y="112.0" width="220.0" height="84.0" rx="14" fill="#fff"/></g><rect x="566.0" y="126.0" width="4.0" height="56.0" rx="2" fill="#34A853"/><rect x="582.0" y="126.0" width="30.0" height="30.0" rx="8" fill="#E6F4EA"/><path d="M589,149 l10,-10 m-4,-4 l8,8 m-12,-2 l8,8" stroke="#1E8E3E" stroke-width="2.2" stroke-linecap="round"/><rect x="622.0" y="130.0" width="80.0" height="7.0" rx="3.5" fill="#B2DFDB"/><circle cx="756.0" cy="133.0" r="3.5" fill="#34A853"/><rect x="763.0" y="131.0" width="12.0" height="4.0" rx="2.0" fill="#A8DAB5"/><circle cx="628.0" cy="150.5" r="3" fill="#34A853"/><rect x="636.0" y="148.0" width="95.0" height="5.0" rx="2.5" fill="#A8DAB5"/><rect x="746.0" y="148.0" width="24.0" height="5.0" rx="2.5" fill="#B2DFDB"/><circle cx="628.0" cy="162.5" r="3" fill="#4285F4"/><rect x="636.0" y="160.0" width="70.0" height="5.0" rx="2.5" fill="#E6F4EA"/><rect x="746.0" y="160.0" width="24.0" height="5.0" rx="2.5" fill="#DADCE0"/><circle cx="628.0" cy="174.5" r="3" fill="#FBBC04"/><rect x="636.0" y="172.0" width="45.0" height="5.0" rx="2.5" fill="#E6F4EA"/><rect x="746.0" y="172.0" width="24.0" height="5.0" rx="2.5" fill="#DADCE0"/><g filter="url(#osh)"><rect x="566.0" y="204.0" width="220.0" height="84.0" rx="14" fill="#fff"/></g><rect x="566.0" y="218.0" width="4.0" height="56.0" rx="2" fill="#FBBC04"/><rect x="582.0" y="218.0" width="30.0" height="30.0" rx="8" fill="#FEF7E0"/><rect x="588.0" y="228.0" width="12.0" height="9.0" rx="2" fill="#B06000"/><rect x="600.0" y="230.0" width="6.0" height="7.0" rx="1.5" fill="#B06000"/><circle cx="591.0" cy="238.0" r="2" fill="#B06000"/><circle cx="602.0" cy="238.0" r="2" fill="#B06000"/><rect x="622.0" y="218.0" width="148.0" height="56.0" rx="8" fill="#EEF3EA"/><path d="M634,264 C666.4,224 710.8,274 756,230" fill="none" stroke="#BDC1C6" stroke-width="2" stroke-dasharray="4 4"/><path d="M634,264 C681.2,257.2 710.8,229.2 756,230" fill="none" stroke="#34A853" stroke-width="3.5" stroke-linecap="round"/><circle cx="634.0" cy="264.0" r="4.5" fill="#4285F4" stroke="#fff" stroke-width="2"/><circle cx="756.0" cy="230.0" r="4.5" fill="#EA4335" stroke="#fff" stroke-width="2"/><path d="M597,258 l1.6800000000000002,4.32 4.32,1.6800000000000002 -4.32,1.6800000000000002 -1.6800000000000002,4.32 -1.6800000000000002,-4.32 -4.32,-1.6800000000000002 4.32,-1.6800000000000002z" fill="#4285F4"/><g filter="url(#osh)"><rect x="566.0" y="296.0" width="220.0" height="84.0" rx="14" fill="#fff"/></g><rect x="566.0" y="310.0" width="4.0" height="56.0" rx="2" fill="#EA4335"/><rect x="582.0" y="310.0" width="56.0" height="56.0" rx="10" fill="#FCE8E6"/><rect x="596.0" y="326.0" width="28.0" height="22.0" rx="4" fill="#fff" stroke="#EA4335" stroke-width="2"/><circle cx="610.0" cy="337.0" r="6" fill="none" stroke="#EA4335" stroke-width="2"/><path d="M588,316 h7 M588,316 v7 M632,360 h-7 M632,360 v-7" stroke="#EA4335" stroke-width="2"/><rect x="650.0" y="314.0" width="80.0" height="7.0" rx="3.5" fill="#B2DFDB"/><rect x="650.0" y="328.0" width="44.0" height="16.0" rx="8" fill="#E6F4EA"/><rect x="658.0" y="334.0" width="28.0" height="4.0" rx="2.0" fill="#81C995"/><circle cx="658.0" cy="358.0" r="5.5" fill="#34A853"/><circle cx="674.0" cy="358.0" r="5.5" fill="#4285F4"/><circle cx="690.0" cy="358.0" r="5.5" fill="#FBBC04"/><circle cx="706.0" cy="358.0" r="5.5" fill="#EA4335"/><rect x="734.0" y="350.0" width="38.0" height="14.0" rx="7" fill="#E8F0FE"/><rect x="740.0" y="355.0" width="2.5" height="4.0" rx="1.2" fill="#4285F4"/><rect x="745.0" y="353.0" width="2.5" height="8.0" rx="1.2" fill="#4285F4"/><rect x="750.0" y="354.0" width="2.5" height="6.0" rx="1.2" fill="#4285F4"/><rect x="755.0" y="352.5" width="2.5" height="9.0" rx="1.2" fill="#4285F4"/><rect x="760.0" y="354.5" width="2.5" height="5.0" rx="1.2" fill="#4285F4"/><rect x="765.0" y="355.5" width="2.5" height="3.0" rx="1.2" fill="#4285F4"/></svg>