<svg xmlns="http://www.w3.org/2000/svg" viewBox="0 0 800 440" width="800" height="440" font-family="Google Sans, Roboto, Arial, sans-serif" role="img"><rect width="800" height="440" rx="24" fill="#E8F0FE"/><circle cx="80" cy="380" r="110" fill="#fff" opacity="0.5"/><rect x="288" y="22" width="224" height="34" rx="17" fill="#fff" stroke="#E8EAED"/><circle cx="312" cy="39" r="6" fill="#34A853"/><text x="326" y="44" font-size="12" font-weight="700" fill="#1A73E8" text-anchor="start">LIVE BIDDING ROOM</text><rect x="52" y="86" width="216" height="258" rx="18" fill="#000" opacity="0.06"/><rect x="48" y="80" width="216" height="258" rx="18" fill="#fff"/><rect x="60" y="92" width="192" height="130" rx="12" fill="#F1F3F4"/><rect x="140" y="105" width="32" height="104" rx="10" fill="#1A73E8"/><circle cx="156" cy="157" r="32" fill="#fff" stroke="#4285F4" stroke-width="6"/><path d="M156,141 v16 l11,7" stroke="#3C4043" stroke-width="4" fill="none" stroke-linecap="round"/><text x="64" y="250" font-size="15" font-weight="700" fill="#202124" text-anchor="start">Eco Watch</text><rect x="64" y="260" width="96" height="8" rx="4" fill="#E8EAED"/><text text-decoration="line-through" x="64" y="306" font-size="14" font-weight="400" fill="#BDC1C6" text-anchor="start">$249</text><text x="248" y="308" font-size="22" font-weight="700" fill="#1A73E8" text-anchor="end">$180</text><rect x="178" y="104" width="62" height="22" rx="11" fill="#fff"/><circle cx="191" cy="115" r="4" fill="#34A853"/><rect x="200" y="112" width="30" height="6" rx="3" fill="#34A853"/><rect x="292" y="86" width="216" height="258" rx="18" fill="#000" opacity="0.06"/><rect x="288" y="80" width="216" height="258" rx="18" fill="#fff"/><rect x="300" y="92" width="192" height="130" rx="12" fill="#F1F3F4"/><path d="M352,165 a44,44 0 0 1 88,0" fill="none" stroke="#4285F4" stroke-width="9" stroke-linecap="round"/><rect x="340" y="151" width="24" height="46" rx="10" fill="#4285F4"/><rect x="428" y="151" width="24" height="46" rx="10" fill="#4285F4"/><text x="304" y="250" font-size="15" font-weight="700" fill="#202124" text-anchor="start">Headphones</text><rect x="304" y="260" width="96" height="8" rx="4" fill="#E8EAED"/><text text-decoration="line-through" x="304" y="306" font-size="14" font-weight="400" fill="#BDC1C6" text-anchor="start">$199</text><text x="488" y="308" font-size="22" font-weight="700" fill="#1A73E8" text-anchor="end">$135</text><rect x="418" y="104" width="62" height="22" rx="11" fill="#fff"/><circle cx="431" cy="115" r="4" fill="#34A853"/><rect x="440" y="112" width="30" height="6" rx="3" fill="#34A853"/><rect x="532" y="86" width="216" height="258" rx="18" fill="#000" opacity="0.06"/><rect x="528" y="80" width="216" height="258" rx="18" fill="#fff"/><rect x="540" y="92" width="192" height="130" rx="12" fill="#F1F3F4"/><rect x="606" y="111" width="60" height="92" rx="12" fill="#34A853"/><circle cx="636" cy="139" r="12" fill="#FBBC04"/><path d="M618,171 h36 M618,185 h36" stroke="#fff" stroke-width="5" stroke-linecap="round"/><text x="544" y="250" font-size="15" font-weight="700" fill="#202124" text-anchor="start">Solar Power Bank</text><rect x="544" y="260" width="96" height="8" rx="4" fill="#E8EAED"/><text text-decoration="line-through" x="544" y="306" font-size="14" font-weight="400" fill="#BDC1C6" text-anchor="start">$89</text><text x="728" y="308" font-size="22" font-weight="700" fill="#1A73E8" text-anchor="end">$62</text><rect x="658" y="104" width="62" height="22" rx="11" fill="#fff"/><circle cx="671" cy="115" r="4" fill="#34A853"/><rect x="680" y="112" width="30" height="6" rx="3" fill="#34A853"/><rect x="48" y="358" width="696" height="62" rx="14" fill="#fff"/><path d="M72,404 L130,392 L190,398 L250,380 L310,386 L370,372 L430,378 L490,364 L550,370 L610,372 L680,368" fill="none" stroke="#4285F4" stroke-width="3.5" stroke-linecap="round" stroke-linejoin="round"/><path d="M72,404 L130,392 L190,398 L250,380 L310,386 L370,372 L430,378 L490,364 L550,370 L610,372 L680,368 L680,414 L72,414z" fill="#4285F4" opacity="0.12"/><text x="698" y="392" font-size="13" font-weight="700" fill="#1A73E8" text-anchor="start">14-day</text><text x="698" y="408" font-size="12" font-weight="400" fill="#70757A" text-anchor="start">forecast</text><g transform="translate(668 40) rotate(-28) scale(0.7)"><rect x="-30" y="-14" width="48" height="28" rx="8" fill="#FBBC04"/><rect x="14" y="-4" width="56" height="8" rx="4" fill="#3C4043"/></g></svg>
