<svg xmlns="http://www.w3.org/2000/svg" viewBox="0 0 800 440" width="800" height="440" font-family="Google Sans, Roboto, Arial, sans-serif" role="img"><rect width="800" height="440" rx="24" fill="#FEF7E0"/><circle cx="730" cy="400" r="100" fill="#fff" opacity="0.5"/><rect x="48" y="44" width="372" height="352" rx="20" fill="#fff" stroke="#E8EAED" stroke-width="1.5"/><path d="M48,64 a20,20 0 0 1 20,-20 h332 a20,20 0 0 1 20,20 v36 h-372z" fill="#F9AB00"/><circle cx="86" cy="72" r="18" fill="#fff"/><path d="M86,60 l3,8 l8,3 l-8,3 l-3,8 l-3,-8 l-8,-3 l8,-3z" fill="#F9AB00"/><text x="114" y="70" font-size="16" font-weight="700" fill="#202124" text-anchor="start">AI Assistant</text><text x="114" y="88" font-size="12" font-weight="400" fill="#3C4043" text-anchor="start">Gemini Flash</text><rect x="72" y="120" width="230" height="52" rx="16" fill="#E8F0FE"/><rect x="88" y="136" width="170" height="8" rx="4" fill="#4285F4" opacity="0.6"/><rect x="88" y="152" width="120" height="8" rx="4" fill="#4285F4" opacity="0.6"/><rect x="196" y="190" width="200" height="40" rx="16" fill="#1A73E8"/><rect x="214" y="206" width="150" height="8" rx="4" fill="#fff" opacity="0.85"/><rect x="72" y="248" width="260" height="66" rx="16" fill="#E8F0FE"/><rect x="88" y="264" width="200" height="8" rx="4" fill="#4285F4" opacity="0.6"/><rect x="88" y="280" width="150" height="8" rx="4" fill="#4285F4" opacity="0.6"/><rect x="88" y="296" width="90" height="8" rx="4" fill="#4285F4" opacity="0.6"/><rect x="72" y="332" width="92" height="26" rx="13" fill="#fff" stroke="#4285F4" stroke-width="1.5"/><text x="118.0" y="349" font-size="12" font-weight="700" fill="#1A73E8" text-anchor="middle">Start return</text><rect x="172" y="332" width="80" height="26" rx="13" fill="#fff" stroke="#4285F4" stroke-width="1.5"/><text x="212.0" y="349" font-size="12" font-weight="700" fill="#1A73E8" text-anchor="middle">Track</text><rect x="64" y="366" width="340" height="20" rx="10" fill="#F1F3F4"/><rect x="452" y="44" width="300" height="196" rx="20" fill="#fff" stroke="#E8EAED" stroke-width="1.5"/><rect x="468" y="60" width="268" height="124" rx="14" fill="#F1F3F4"/><rect x="576" y="76" width="52" height="92" rx="10" fill="#1A73E8"/><circle cx="602" cy="122" r="19" fill="#fff" stroke="#4285F4" stroke-width="4"/><path d="M602,110 v12 l8,5" stroke="#3C4043" stroke-width="3" fill="none" stroke-linecap="round"/><path d="M496,106 v-22 h22" fill="none" stroke="#4285F4" stroke-width="4" stroke-linecap="round" stroke-linejoin="round"/><path d="M708,106 v-22 h-22" fill="none" stroke="#4285F4" stroke-width="4" stroke-linecap="round" stroke-linejoin="round"/><path d="M496,138 v22 h22" fill="none" stroke="#4285F4" stroke-width="4" stroke-linecap="round" stroke-linejoin="round"/><path d="M708,138 v22 h-22" fill="none" stroke="#4285F4" stroke-width="4" stroke-linecap="round" stroke-linejoin="round"/><rect x="468" y="196" width="104" height="30" rx="15" fill="#E6F4EA"/><circle cx="486" cy="211" r="6" fill="#34A853"/><text x="498" y="216" font-size="14" font-weight="700" fill="#188038" text-anchor="start">Grade A</text><text x="724" y="216" font-size="13" font-weight="700" fill="#1A73E8" text-anchor="end">78% recovery</text><rect x="452" y="260" width="300" height="58" rx="14" fill="#fff" stroke="#E8EAED" stroke-width="1.5"/><circle cx="484" cy="289" r="14" fill="#E6F4EA"/><circle cx="484" cy="289" r="6" fill="#34A853"/><rect x="512" y="274" width="150" height="9" rx="4.5" fill="#DADCE0"/><rect x="512" y="292" width="96" height="8" rx="4" fill="#E8EAED"/><rect x="672" y="279" width="62" height="20" rx="10" fill="#E6F4EA"/><rect x="684" y="286" width="38" height="6" rx="3" fill="#34A853"/><rect x="452" y="330" width="300" height="58" rx="14" fill="#fff" stroke="#E8EAED" stroke-width="1.5"/><circle cx="484" cy="359" r="14" fill="#FEF7E0"/><circle cx="484" cy="359" r="6" fill="#FBBC04"/><rect x="512" y="344" width="130" height="9" rx="4.5" fill="#DADCE0"/><rect x="512" y="362" width="96" height="8" rx="4" fill="#E8EAED"/><rect x="672" y="349" width="62" height="20" rx="10" fill="#FEF7E0"/><rect x="684" y="356" width="38" height="6" rx="3" fill="#FBBC04"/></svg>
