<svg xmlns="http://www.w3.org/2000/svg" viewBox="0 0 800 440" width="800" height="440" font-family="Google Sans, Roboto, Arial, sans-serif" role="img"><rect width="800" height="440" rx="24" fill="#E6F4EA"/><circle cx="560" cy="64" r="36" fill="#FBBC04"/><circle cx="140" cy="60" r="80" fill="#fff" opacity="0.5"/><path d="M0,300 C140,250 240,310 380,280 C520,250 620,300 800,260 V440 H0z" fill="#fff" opacity="0.65"/><path d="M96,230 C220,120 320,300 440,190 S640,90 704,130" fill="none" stroke="#4285F4" stroke-width="6" stroke-dasharray="2 14" stroke-linecap="round"/><path d="M96,264 c-26,-30 -34,-46 -34,-62 a34,34 0 1 1 68,0 c0,16 -8,32 -34,62z" fill="#1A73E8"/><circle cx="96" cy="202" r="20" fill="#fff"/><text x="96" y="209" font-size="20" font-weight="700" fill="#1A73E8" text-anchor="middle">A</text><path d="M704,164 c-26,-30 -34,-46 -34,-62 a34,34 0 1 1 68,0 c0,16 -8,32 -34,62z" fill="#EA4335"/><circle cx="704" cy="102" r="20" fill="#fff"/><text x="704" y="109" font-size="20" font-weight="700" fill="#EA4335" text-anchor="middle">B</text><rect x="0" y="350" width="800" height="70" fill="#3C4043"/><path d="M0,385 h800" stroke="#fff" stroke-width="4" stroke-dasharray="30 24"/><g transform="translate(250 262)"><rect x="0" y="0" width="190" height="96" rx="12" fill="#1A73E8"/><rect x="196" y="28" width="86" height="68" rx="12" fill="#4285F4"/><path d="M214,40 h40 l16,22 h-56z" fill="#fff" opacity="0.9"/><circle cx="52" cy="98" r="22" fill="#202124"/><circle cx="52" cy="98" r="9" fill="#DADCE0"/><circle cx="228" cy="98" r="22" fill="#202124"/><circle cx="228" cy="98" r="9" fill="#DADCE0"/><rect x="22" y="20" width="60" height="44" rx="8" fill="#FBBC04"/><path d="M52,20 v44 M22,42 h60" stroke="#B88A00" stroke-width="3"/><rect x="100" y="30" width="64" height="34" rx="8" fill="#fff" opacity="0.9"/><path d="M112,48 l8,8 l16,-16" fill="none" stroke="#34A853" stroke-width="5" stroke-linecap="round" stroke-linejoin="round"/></g><rect x="520" y="222" width="150" height="38" rx="19" fill="#fff"/><path d="M544,244 c0,-10 12,-14 18,-8 c4,-8 16,-4 14,6 c-4,12 -22,12 -32,2z" fill="#34A853"/><text x="586" y="247" font-size="14" font-weight="700" fill="#1A73E8" text-anchor="start">CO2 saved</text><circle cx="170" cy="330" r="30" fill="#fff"/><path d="M160,322 a14,14 0 0 1 24,2 M184,338 a14,14 0 0 1 -24,-2" fill="none" stroke="#4285F4" stroke-width="4" stroke-linecap="round"/><path d="M184,316 v10 h-10 M156,344 v-10 h10" fill="none" stroke="#4285F4" stroke-width="4" stroke-linecap="round" stroke-linejoin="round"/></svg>
